<svg width="920" height="550" viewBox="0 0 920 550" fill="none" xmlns="http://www.w3.org/2000/svg">
<rect width="920" height="550" fill="white"></rect>
<path d="M488.293 400.924C488.293 400.924 501.171 395.433 508.229 374.166C511.989 382.39 513.571 391.441 512.823 400.451C507.121 401.73 488.293 400.924 488.293 400.924Z" fill="#981e32"></path>
<path d="M557.468 279.289C557.468 279.289 565.322 322.037 537.5 323.499C510.657 324.896 498.016 284.576 498.016 284.576C498.016 284.576 504.503 363.367 542.137 358.177C584.504 352.342 557.468 279.289 557.468 279.289Z" fill="#981e32"></path>
<path d="M353.097 390.754C353.11 390.747 353.125 390.743 353.14 390.743C384.512 383.607 408.557 347.038 415.604 332.358L420.091 323.063L422.791 333.014C424.84 341.531 425.866 350.261 425.847 359.02C425.847 360.632 425.803 362.276 425.717 363.942C436.541 364.35 444.265 362.158 449.074 357.171C455.971 350.057 458.036 336.571 455.476 315.96C454.206 306.094 450.559 290.405 447.321 276.553C445.664 269.471 444.104 262.776 443.157 258.037C437.111 227.754 444.62 208.948 451.979 198.513C453.14 196.885 454.397 195.327 455.745 193.85C434.023 201.136 415.82 212.484 397.035 231.225L410.247 246.528L415.648 241.477C418.701 253.411 419.192 265.856 417.089 277.993C412.56 271.216 407.494 264.812 401.941 258.843L405.524 252.825L393.614 239.006L392.237 237.458C383.879 248.526 377.338 260.852 372.861 273.974L383.243 283.474L389.289 288.943L391.323 283.119C394.561 289.331 396.332 296.202 396.499 303.204C396.667 310.206 395.228 317.154 392.291 323.514C390.462 316.4 383.103 305.88 383.103 305.88L386.008 296.305L370.548 282.334C354.474 332.487 333 348.736 333 348.736C345.204 346.559 357.279 343.714 369.171 340.214C368.211 358.153 362.678 375.55 353.097 390.754" fill="#981e32"></path>
<path d="M587.647 209.813L550.53 211.382C550.593 215.785 549.924 220.168 548.55 224.353C552.015 239.484 549.605 247.694 549.605 247.694C543.397 233.261 538.674 229.253 538.674 229.253C504.58 214.133 485.429 248.328 487.484 270.39C489.152 288.519 495.747 312.58 500.879 350.331C505.204 382.097 489.098 395.831 470.572 398.98C470.174 399.033 469.765 399.109 469.356 399.195C469.259 399.191 469.161 399.198 469.066 399.216C465.894 399.613 462.697 399.771 459.501 399.689C459.385 399.662 459.265 399.651 459.146 399.657C458.77 399.657 458.415 399.603 458.038 399.603C456.596 399.517 455.176 399.367 453.767 399.195C439.35 397.207 407.074 391.35 373.733 390.544C393.346 379.11 408.688 359.304 417.252 345.281C417.84 349.875 418.138 354.501 418.145 359.132C418.145 361.733 418.059 364.474 417.79 367.268L417.467 371.093L421.308 371.416C436.65 372.748 447.527 369.825 454.638 362.507C463.331 353.459 466.01 338.382 463.062 314.998C461.793 304.746 458.059 288.841 454.8 274.817C453.175 267.8 451.637 261.137 450.701 256.538C445.181 228.909 451.777 212.134 458.286 202.936C463.107 195.943 470.045 190.678 478.081 187.912C478.21 187.891 478.34 187.859 478.479 187.837L491.153 149H495.134L486.624 186.322C488.593 185.978 490.594 185.666 492.616 185.355L503.558 150.945H507.495L500.33 184.269C511.659 182.818 523.945 181.69 537.566 180.691C540.453 182.283 542.788 184.716 544.258 187.665L579.976 176.693L581.3 180.54L547.152 193.769C547.421 194.467 547.69 195.198 547.905 195.94L585.238 191.308L585.861 195.306L549.637 202.527C549.766 203.204 549.874 203.881 549.992 204.558L587.669 205.772L587.647 209.813ZM480.104 226.481C489.658 220.325 500.937 217.395 512.283 218.12C515.306 218.346 517.867 217.55 514.607 215.831C505.667 211.124 484.827 212.725 477.457 217.744C473.928 220.284 471.17 223.748 469.488 227.756C467.805 231.763 467.265 236.156 467.925 240.451C470.933 234.975 475.087 230.21 480.104 226.481" fill="#981e32"></path>
</svg>